<svg width="12.346375" height="12.346436" viewBox="0 0 12.3464 12.3464" fill="none" xmlns="http://www.w3.org/2000/svg" xmlns:xlink="http://www.w3.org/1999/xlink">
	<mask id="mask9_3022" mask-type="alpha" maskUnits="userSpaceOnUse" x="0.000000" y="0.000000" width="12.346375" height="12.346436">
		<path id="Vector" d="M0 0L12.3464 0L12.3464 12.3464L0 12.3464L0 0Z" fill="#000000" fill-opacity="1.000000" fill-rule="nonzero"/>
	</mask>
	<g mask="url(#mask9_3022)">
		<g opacity="0.800000">
			<path id="path" d="M10.031 0.823242L12.3464 0.823242L12.3464 12.3464L0 12.3464L0 0.823242L2.31534 0.823242L2.31534 0L3.08578 0L3.08578 0.823242L9.259 0.823242L9.259 0L10.0294 0L10.031 0.823242ZM2.31534 1.64648L0.77121 1.64648L0.77121 3.29199L11.5743 3.29199L11.5743 1.64648L10.031 1.64648L10.031 2.46973L9.26056 2.46973L9.26056 1.64648L3.08737 1.64648L3.08737 2.46973L2.31693 2.46973L2.31534 1.64648ZM0.77121 11.5232L11.5743 11.5232L11.5743 4.11536L0.77121 4.11536L0.77121 11.5232ZM2.31534 7.40723L2.31534 6.58398L3.1384 6.58398L3.1384 7.40723L2.31534 7.40723ZM2.31534 9.05347L2.31534 8.23022L3.1384 8.23022L3.1384 9.05347L2.31534 9.05347ZM2.31534 10.6998L2.31534 9.87659L3.1384 9.87659L3.1384 10.6998L2.31534 10.6998ZM4.63071 5.76147L4.63071 4.93823L5.45377 4.93823L5.45377 5.7616L4.63071 5.76147ZM4.63071 7.40698L4.63071 6.58374L5.45377 6.58374L5.45377 7.40698L4.63071 7.40698ZM4.63071 9.05334L4.63071 8.22998L5.45377 8.22998L5.45377 9.05334L4.63071 9.05334ZM4.63071 10.6996L4.63071 9.87646L5.45377 9.87646L5.45377 10.6996L4.63071 10.6996ZM6.94522 5.76123L6.94522 4.93799L7.76834 4.93799L7.76834 5.7616L6.94522 5.76123ZM6.94522 7.40686L6.94522 6.58362L7.76834 6.58362L7.76834 7.40686L6.94522 7.40686ZM6.94522 9.0531L6.94522 8.22986L7.76834 8.22986L7.76834 9.0531L6.94522 9.0531ZM6.94522 10.6995L6.94522 9.87622L7.76834 9.87622L7.76834 10.6995L6.94522 10.6995ZM9.26062 5.76111L9.26062 4.93787L10.0837 4.93787L10.0837 5.7616L9.26062 5.76111ZM9.26062 7.40662L9.26062 6.58337L10.0837 6.58337L10.0837 7.40662L9.26062 7.40662ZM9.26062 9.05298L9.26062 8.22974L10.0837 8.22974L10.0837 9.05298L9.26062 9.05298Z" fill="#000000" fill-opacity="1.000000" fill-rule="evenodd"/>
		</g>
	</g>
</svg>
